<svg xmlns="http://www.w3.org/2000/svg" viewBox="0 0 512 512"><title>Coupon</title><g id="Coupon"><path d="M456,128.8008H175.4922a7.9979,7.9979,0,0,0-8,8,11.8672,11.8672,0,0,1-23.7344,0,7.9979,7.9979,0,0,0-8-8H56a7.9979,7.9979,0,0,0-8,8V375.1992a7.9979,7.9979,0,0,0,8,8h79.7578a7.9979,7.9979,0,0,0,8-8,11.8672,11.8672,0,1,1,23.7344,0,7.9979,7.9979,0,0,0,8,8H456a7.9979,7.9979,0,0,0,8-8V136.8008A7.9979,7.9979,0,0,0,456,128.8008Zm-8,238.3984H182.32a27.8687,27.8687,0,0,0-53.3906,0H64V144.8008h64.93a27.8687,27.8687,0,0,0,53.3906,0H448Z" id="id_121" style="fill: rgb(245, 57, 38);"></path><path d="M271.9063,249.6133a28.8036,28.8036,0,0,0,20.375-49.1719h-.004c-10.8906-10.8906-29.871-10.8906-40.746,0a28.7969,28.7969,0,0,0,20.375,49.1719Zm-9.0586-37.8594a12.7925,12.7925,0,0,1,18.1132,0h.0039a12.8165,12.8165,0,1,1-18.1171,0Z" id="id_122" style="fill: rgb(245, 57, 38);"></path><path d="M362.6523,270.8164c-10.8828-10.8906-29.8632-10.8906-40.746,0a28.8125,28.8125,0,1,0,40.75,0Zm-11.3125,29.43a13.1152,13.1152,0,0,1-18.121,0,12.8145,12.8145,0,1,1,18.121,0Z" id="id_123" style="fill: rgb(245, 57, 38);"></path><path d="M251.0352,312.0586a7.9972,7.9972,0,0,0,11.3125,0L363.1484,211.2539a7.9991,7.9991,0,0,0-11.3125-11.3125L251.0352,300.7461A7.9971,7.9971,0,0,0,251.0352,312.0586Z" id="id_124" style="fill: rgb(245, 57, 38);"></path><path d="M155.625,182.02a7.9979,7.9979,0,0,0-8,8v18.4453a8,8,0,0,0,16,0V190.02A7.9979,7.9979,0,0,0,155.625,182.02Z" id="id_125" style="fill: rgb(245, 57, 38);"></path><path d="M155.625,238.7773a7.9979,7.9979,0,0,0-8,8v18.4454a8,8,0,0,0,16,0V246.7773A7.9979,7.9979,0,0,0,155.625,238.7773Z" id="id_126" style="fill: rgb(245, 57, 38);"></path><path d="M155.625,295.5352a7.9979,7.9979,0,0,0-8,8v18.4531a8,8,0,0,0,16,0V303.5352A7.9979,7.9979,0,0,0,155.625,295.5352Z" id="id_127" style="fill: rgb(131, 189, 49);"></path></g></svg>