<svg width="28" height="20" viewBox="0 0 28 20" fill="none" xmlns="http://www.w3.org/2000/svg">
<path fill-rule="evenodd" clip-rule="evenodd" d="M27.0599 0.66039C27.1487 0.589347 27.2 0.48446 27.2 0.373906V0.373906C27.2 0.167403 27.0246 0 26.8081 0H0.608349C0.272367 0 0 0.259874 0 0.580445V0.580445C0 0.753004 0.0804673 0.916616 0.219571 1.02689L12.9919 11.1525C13.2703 11.3731 13.6742 11.3722 13.9514 11.1503L27.0599 0.66039ZM1.22705 3.99249C0.739251 3.60578 0 3.93677 0 4.54188V19.2857C0 19.6802 0.33517 20 0.748624 20H26.4514C26.8648 20 27.2 19.6802 27.2 19.2857V4.25491C27.2 3.64825 26.4575 3.31778 25.9703 3.70763L14.0365 13.2575L13.9567 13.3214C13.6794 13.5433 13.2755 13.5442 12.9972 13.3235L12.9171 13.26L1.22705 3.99249Z" fill="#F7F5F9" fill-opacity="0.6"/>
</svg>
